<svg viewBox="0 0 12 10" fill="none" xmlns="http://www.w3.org/2000/svg">
    <path fill-rule="evenodd" clip-rule="evenodd"
        d="M10.8516 0.769226H0.851565C0.639149 0.769226 0.466949 0.941426 0.466949 1.15384V9.61538C0.466949 9.82776 0.639149 10 0.851565 10H10.8516C11.0639 10 11.2362 9.82776 11.2362 9.61538V1.15384C11.2362 0.941426 11.0639 0.769226 10.8516 0.769226ZM1.23618 9.23076V1.53846H10.4669V9.23076H1.23618Z"
        fill="#3C3A80" />
    <path fill-rule="evenodd" clip-rule="evenodd"
        d="M10.8516 0.769226H0.851565C0.639149 0.769226 0.466949 0.941426 0.466949 1.15384V3.46153C0.466949 3.67395 0.639149 3.84615 0.851565 3.84615H10.8516C11.0639 3.84615 11.2362 3.67395 11.2362 3.46153V1.15384C11.2362 0.941426 11.0639 0.769226 10.8516 0.769226ZM1.23618 3.07692V1.53846H10.4669V3.07692H1.23618Z"
        fill="#3C3A80" />
    <path
        d="M2.39002 1.53846H3.15926C3.37167 1.53846 3.54387 1.36626 3.54387 1.15385V0.384615C3.54387 0.1722 3.37167 0 3.15926 0H2.39002C2.17761 0 2.00541 0.1722 2.00541 0.384615V1.15385C2.00541 1.36626 2.17761 1.53846 2.39002 1.53846Z"
        fill="#3C3A80" />
    <path
        d="M8.54387 1.53846H9.3131C9.52549 1.53846 9.69772 1.36626 9.69772 1.15385V0.384615C9.69772 0.1722 9.52549 0 9.3131 0H8.54387C8.33149 0 8.15926 0.1722 8.15926 0.384615V1.15385C8.15926 1.36626 8.33149 1.53846 8.54387 1.53846Z"
        fill="#3C3A80" />
    <path
        d="M2.77464 6.15385C2.34981 6.15385 2.00541 5.80946 2.00541 5.38462C2.00541 4.95979 2.34981 4.61539 2.77464 4.61539C3.19947 4.61539 3.54387 4.95979 3.54387 5.38462C3.54387 5.80946 3.19947 6.15385 2.77464 6.15385Z"
        fill="#3C3A80" />
</svg>