<svg viewBox="0 0 81 16" fill="none" xmlns="http://www.w3.org/2000/svg">
    <g clip-path="url(#clip0_1464_5049)">
        <path fill-rule="evenodd" clip-rule="evenodd" d="M59.3804 4.59409C58.3269 4.59409 57.3671 4.63672 56.4811 4.70889C56.2893 4.72477 56.1943 4.87994 56.1943 5.01497V13.1209C56.1943 13.2496 56.2912 13.4378 56.5143 13.4378H57.6648C57.8192 13.4378 57.9744 13.3212 57.9744 13.1143V10.263H59.3804C60.6956 10.263 61.41 10.1498 61.9655 9.74147C62.5211 9.33342 62.7026 8.67577 62.7026 7.50787C62.7026 6.38539 62.4644 5.62581 61.9769 5.21776C61.5007 4.79814 60.6389 4.59409 59.3804 4.59409ZM59.1991 6.14728C59.8792 6.14728 60.3329 6.23807 60.5596 6.43075C60.7863 6.61232 60.8998 6.98617 60.8998 7.55308C60.8998 8.12001 60.7863 8.48306 60.571 8.65305C60.3555 8.81191 59.8906 8.89107 59.1991 8.89107H57.9744V6.14728H59.1991ZM65.7412 7.03158C65.1061 7.03158 64.5279 7.09982 64.1085 7.45136C63.8704 7.67809 63.6889 8.08598 63.6889 8.63022V13.1105C63.6889 13.2301 63.7756 13.4378 64.0037 13.4378H65.0617C65.2719 13.4378 65.3783 13.2633 65.3783 13.1344V9.06129C65.3783 8.5965 65.5484 8.48306 66.172 8.48306H67.2379C67.356 8.48306 67.4306 8.39163 67.4306 8.29245V7.38333C67.4306 7.25849 67.3739 7.19063 67.2491 7.15659C66.8864 7.07717 66.3875 7.03158 65.7412 7.03158Z" fill="white"/>
        <path fill-rule="evenodd" clip-rule="evenodd" d="M78.8007 7.08849C78.7155 7.08849 78.6508 7.13686 78.62 7.22855C78.6157 7.23989 78.6116 7.25502 78.6079 7.26978L77.4967 11.7937C77.4174 12.0658 77.3948 12.1113 77.2133 12.1113C77.0659 12.1113 77.0433 12.0658 76.9638 11.7937L75.8203 7.23364C75.8033 7.16988 75.7471 7.08826 75.646 7.08826H74.2935C74.1546 7.08826 74.0813 7.21635 74.1117 7.33005L75.4218 12.1452C75.5919 12.7573 75.7621 13.1316 75.9435 13.2791C76.1362 13.4264 76.5556 13.4945 77.2133 13.4945C77.8937 13.4945 78.3245 13.4264 78.5173 13.2791C78.71 13.1316 78.8915 12.7573 79.0615 12.1452L80.3277 7.32695C80.3664 7.17967 80.2392 7.08849 80.1476 7.08849H78.8007Z" fill="white"/>
        <path fill-rule="evenodd" clip-rule="evenodd" d="M70.9116 7.03159C69.7664 7.03159 69.0068 7.24711 68.6327 7.67809C68.2585 8.09749 68.0657 8.95914 68.0657 10.263C68.0657 11.5557 68.2585 12.4173 68.6327 12.8481C69.0068 13.2791 69.7664 13.4946 70.9116 13.4946C71.8527 13.4946 72.5508 13.4378 73.0611 13.3357C73.1443 13.3198 73.2197 13.2496 73.2197 13.1475V12.2359C73.2197 12.1393 73.1433 12.0431 73.0333 12.0431H71.059C70.5491 12.0431 70.2087 11.9637 70.0386 11.8164C69.8686 11.6691 69.7892 11.34 69.7778 10.8412H73.338C73.6214 10.8412 73.7009 10.7621 73.7009 10.5354V10.1839C73.6895 8.92519 73.5081 8.08597 73.1339 7.66656C72.771 7.24694 72.0342 7.03159 70.9116 7.03159ZM70.9116 8.48306C71.7394 8.48306 72.0001 8.75516 72.0114 9.74147H69.7664C69.7778 8.75516 70.05 8.48306 70.9116 8.48306Z" fill="white"/>
        <path fill-rule="evenodd" clip-rule="evenodd" d="M23.3923 4.59397C22.3641 4.59397 21.4252 4.63354 20.5569 4.70345C20.2871 4.72614 20.2063 4.96626 20.2063 5.07247V13.1144C20.2063 13.3268 20.3753 13.4377 20.5147 13.4377H21.6802C21.8414 13.4377 21.9864 13.3003 21.9864 13.1301V10.2629H23.0294L24.8889 13.1882C25.0136 13.3695 25.1043 13.4377 25.3425 13.4377H26.6873C26.8383 13.4377 26.9358 13.259 26.8482 13.1197L24.9796 10.1496C25.6259 10.0248 26.0681 9.76413 26.3289 9.37877C26.5896 8.98183 26.7144 8.35814 26.7144 7.50776C26.7144 6.38525 26.4763 5.6257 25.9888 5.21763C25.5125 4.798 24.6509 4.59397 23.3923 4.59397ZM23.2109 6.14716C23.8912 6.14716 24.3447 6.23793 24.5714 6.43061C24.7983 6.61218 24.9117 6.98604 24.9117 7.55296C24.9117 8.11989 24.7983 8.48294 24.5828 8.65291C24.3675 8.81179 23.9025 8.89096 23.2109 8.89096H21.9864V6.14716H23.2109ZM38.4723 7.08842C38.3869 7.08842 38.3222 7.13657 38.2914 7.22849C38.2872 7.23984 38.2832 7.25497 38.2795 7.26971L37.1683 11.7937C37.089 12.0658 37.0662 12.1112 36.8848 12.1112C36.7375 12.1112 36.7147 12.0658 36.6354 11.7937L35.4919 7.23359C35.4749 7.16981 35.4186 7.0882 35.3174 7.0882H33.9651C33.8262 7.0882 33.7529 7.2163 33.7831 7.33L35.0934 12.1452C35.2635 12.7573 35.4335 13.1315 35.615 13.279C35.8077 13.4263 36.2272 13.4944 36.8848 13.4944C37.5651 13.4944 37.9961 13.4263 38.1888 13.279C38.3814 13.1315 38.5629 12.7573 38.7329 12.1452L39.9993 7.3269C40.038 7.1796 39.9106 7.08842 39.8192 7.08842H38.4723ZM41.7603 4.41223C41.1253 4.41223 40.7626 4.7411 40.7626 5.31936C40.7626 5.89763 41.1253 6.2378 41.7603 6.2378C42.384 6.2378 42.7355 5.89763 42.7355 5.31936C42.7355 4.7411 42.384 4.41223 41.7603 4.41223ZM40.91 7.39538L40.9088 13.1212C40.9088 13.2844 41.0346 13.4377 41.2264 13.4377H42.2734C42.4206 13.4377 42.5879 13.321 42.5879 13.1188V7.3956C42.5879 7.19771 42.4119 7.0882 42.2771 7.0882H41.2252C41.0917 7.0882 40.91 7.18636 40.91 7.39538ZM46.375 7.03147C44.663 7.03147 43.8012 7.49633 43.8012 8.66422V8.87965C43.8012 9.76408 44.1867 10.3423 44.9578 10.6031L46.3523 11.102C46.8398 11.2722 46.9758 11.408 46.9758 11.6348V11.7369C46.9758 12.0431 46.7944 12.1228 46.1935 12.1226H43.8666C43.7486 12.1226 43.6764 12.2149 43.6764 12.3052V13.185C43.6764 13.264 43.7164 13.3612 43.8693 13.3819C44.5949 13.4613 45.3772 13.4953 46.2162 13.4953C47.7923 13.4953 48.6313 13.0757 48.6313 11.84V11.6587C48.6313 10.8081 48.3477 10.2752 47.4409 9.95788L45.9894 9.44747C45.6267 9.32287 45.4453 9.14158 45.4453 8.92597V8.81271C45.4453 8.54061 45.672 8.40447 46.1142 8.40447H48.1551C48.2538 8.40447 48.3477 8.3269 48.3477 8.22296V7.36125C48.3477 7.27048 48.2912 7.21378 48.1665 7.17974C47.5995 7.07783 46.9986 7.03235 46.375 7.03235V7.03147ZM52.0329 7.03147C51.2391 7.03147 50.5588 7.0882 49.9806 7.20168C49.8558 7.2355 49.8218 7.3226 49.8218 7.38319V8.31271C49.8218 8.3724 49.8829 8.48292 50.0077 8.48292H52.0329C52.7471 8.48292 53.0986 8.74376 53.0986 9.26529V9.67353H51.6586C50.8536 9.67353 50.264 9.79797 49.8899 10.0587C49.527 10.3195 49.3457 10.807 49.3343 11.5328C49.3457 12.4059 49.5384 12.916 50.0259 13.1882C50.5248 13.4489 51.001 13.4944 51.9534 13.4944C52.974 13.4944 53.8356 13.4151 54.5272 13.2564C54.6974 13.1997 54.7767 13.086 54.7767 12.9047V8.98182C54.7767 8.31278 54.584 7.82525 54.1985 7.50776C53.8129 7.19048 53.0872 7.03147 52.0329 7.03147ZM53.0986 12.0204C52.8266 12.0998 52.4523 12.1339 51.9648 12.1339C51.2392 12.1339 51.001 11.975 51.001 11.4422C51.001 10.9433 51.2051 10.762 51.7947 10.762H53.0986V12.0204Z" fill="white"/>
        <path fill-rule="evenodd" clip-rule="evenodd" d="M30.5812 7.03159C29.436 7.03159 28.6763 7.24711 28.3022 7.67809C27.928 8.09749 27.7352 8.95914 27.7352 10.263C27.7352 11.5557 27.928 12.4173 28.3022 12.8481C28.6763 13.2791 29.436 13.4946 30.5812 13.4946C31.5223 13.4946 32.2203 13.4378 32.7306 13.3357C32.8138 13.3198 32.8892 13.2496 32.8892 13.1475V12.2359C32.8892 12.1393 32.8126 12.0431 32.7029 12.0431H30.7286C30.2184 12.0431 29.8782 11.9637 29.7081 11.8164C29.5381 11.6691 29.4586 11.34 29.4472 10.8412H33.0075C33.2909 10.8412 33.3703 10.7621 33.3703 10.5354V10.1839C33.359 8.92519 33.1776 8.08597 32.8035 7.66656C32.4406 7.24694 31.7035 7.03159 30.5812 7.03159ZM30.5812 8.48306C31.4087 8.48306 31.6695 8.75516 31.6809 9.74147H29.436C29.4472 8.75516 29.7194 8.48306 30.5812 8.48306Z" fill="white"/>
        <path fill-rule="evenodd" clip-rule="evenodd" d="M7.80481 12.5676H7.79392C7.56304 12.5699 7.40949 12.4949 7.23996 12.2097L6.4418 10.7128C6.24103 10.8262 6.0331 10.9279 5.81897 11.0171C5.19313 11.2778 4.52777 11.425 3.85654 11.4659C4.50809 12.9994 5.28067 14.8068 5.60413 15.4643L5.69683 15.4552C6.21533 15.4049 6.43259 15.083 6.66769 14.6609L7.80481 12.5676Z" fill="white"/>
        <path fill-rule="evenodd" clip-rule="evenodd" d="M14.6852 0.37123L6.86536 14.7686C6.59409 15.2557 6.32418 15.6205 5.7186 15.6795C5.94117 16.0163 7.08231 16.0547 7.73354 16.0547C8.39938 16.0547 8.85123 16.0706 9.2044 15.9441C9.69473 15.7689 10.0589 15.2587 10.3544 14.6319C12.4195 10.2504 16.2463 2.29431 17.0752 0.488473C17.1659 0.290799 17.0298 0.0325775 16.7786 0.0325775H15.1894C15.0556 0.0325775 14.8523 0.0634854 14.6852 0.37123Z" fill="white"/>
        <path fill-rule="evenodd" clip-rule="evenodd" d="M3.65592 3.13749C4.26419 3.16382 4.84877 3.41523 5.28228 3.84893C5.51808 4.08473 5.71216 4.36243 5.84019 4.66609C5.97444 4.98495 6.03714 5.33274 6.03714 5.68248C6.03714 5.98274 6.01377 6.15111 5.90841 6.43048C5.84019 6.61114 5.66383 6.67526 5.50776 6.64303C5.33061 6.60672 5.18043 6.4404 5.23406 6.21572C5.27621 6.03938 5.32695 5.85482 5.32713 5.66963C5.32758 5.17011 5.13413 4.70559 4.78131 4.35269C4.46375 4.03519 4.05728 3.86214 3.61551 3.84694C3.46727 3.84239 3.30994 3.66449 3.32048 3.48679C3.33622 3.22284 3.5383 3.13251 3.65592 3.13749Z" fill="white"/>
        <path fill-rule="evenodd" clip-rule="evenodd" d="M2.99131 2.47294H3.27602C5.21115 2.45932 6.65488 3.73956 6.68503 5.63118C6.66754 7.47242 5.2676 8.7994 3.40996 8.7994H0.871688C0.65057 8.7994 0.351562 8.97658 0.351562 9.33198V15.6341C0.351562 16.0437 1.38475 16.064 1.73519 16.064C2.0342 16.064 3.09463 16.0458 3.09463 15.6341V11.2526H3.28414C6.62472 11.3466 9.11777 8.82187 9.16164 5.63118C9.12106 2.37671 6.57061 -0.079506 3.27873 0.00196914H0.887258C0.682458 0.00196914 0.351562 0.157638 0.351562 0.532332V1.94279C0.351562 2.2494 0.619069 2.47493 0.863677 2.47493L2.99131 2.47294Z" fill="white"/>
    </g>
    <defs>
        <clipPath id="clip0_1464_5049">
            <rect width="80" height="16" fill="white" transform="translate(0.351562)"/>
        </clipPath>
    </defs>
</svg>
