<svg viewBox="0 0 14 9" fill="none" xmlns="http://www.w3.org/2000/svg">
    <path fill-rule="evenodd" clip-rule="evenodd"
        d="M0.120789 2.30943C0.120789 1.24734 0.981781 0.386353 2.04387 0.386353H11.2746C12.3367 0.386353 13.1977 1.24734 13.1977 2.30943V6.15555C13.1977 7.2177 12.3367 8.07862 11.2746 8.07862H2.04387C0.981781 8.07862 0.120789 7.2177 0.120789 6.15555V2.30943ZM2.04387 1.15558C1.40661 1.15558 0.890019 1.67218 0.890019 2.30943V6.15555C0.890019 6.79285 1.40661 7.30939 2.04387 7.30939H11.2746C11.9119 7.30939 12.4285 6.79285 12.4285 6.15555V2.30943C12.4285 1.67218 11.9119 1.15558 11.2746 1.15558H2.04387Z"
        fill="#3C3A80" />
    <path
        d="M8.19456 4.23245C8.19456 5.08215 7.5061 5.77092 6.65674 5.77092C5.80742 5.77092 5.11891 5.08215 5.11891 4.23245C5.11891 3.38282 5.80742 2.69403 6.65674 2.69403C7.5061 2.69403 8.19456 3.38282 8.19456 4.23245Z"
        fill="#3C3A80" />
    <path fill-rule="evenodd" clip-rule="evenodd"
        d="M6.65674 5.00168C7.08094 5.00168 7.42533 4.65761 7.42533 4.23245C7.42533 3.80736 7.08094 3.46326 6.65674 3.46326C6.23255 3.46326 5.88814 3.80736 5.88814 4.23245C5.88814 4.65761 6.23255 5.00168 6.65674 5.00168ZM6.65674 5.77092C7.5061 5.77092 8.19456 5.08215 8.19456 4.23245C8.19456 3.38282 7.5061 2.69403 6.65674 2.69403C5.80742 2.69403 5.11891 3.38282 5.11891 4.23245C5.11891 5.08215 5.80742 5.77092 6.65674 5.77092Z"
        fill="#3C3A80" />
    <path fill-rule="evenodd" clip-rule="evenodd"
        d="M12.8488 4.55639C13.0524 4.61632 13.169 4.83001 13.1093 5.03378C13.0494 5.23762 12.8357 5.35439 12.6319 5.29455L12.7403 4.92547C12.6319 5.29455 12.6321 5.29462 12.6319 5.29455L12.6307 5.29416L12.629 5.2937L12.6245 5.29232L12.6109 5.28809C12.5997 5.28447 12.5846 5.27955 12.5656 5.27293C12.5277 5.25978 12.4746 5.24032 12.4082 5.21332C12.2753 5.15924 12.0889 5.07501 11.8637 4.95101C11.4133 4.70293 10.8082 4.29578 10.1676 3.65334C9.51872 3.00247 9.12749 2.34783 8.89772 1.85197C8.78279 1.60405 8.7081 1.39545 8.66164 1.24614C8.63833 1.17145 8.6221 1.11149 8.61141 1.06874C8.60602 1.04736 8.60202 1.03027 8.59926 1.01778L8.59595 1.00251L8.59487 0.997532L8.59456 0.995724L8.59433 0.994663C8.59426 0.994509 8.59426 0.994363 8.97149 0.919647M12.8488 4.55639L12.8497 4.5567C12.8499 4.5567 12.85 4.55678 12.8497 4.5567"
        fill="#3C3A80" />
    <path fill-rule="evenodd" clip-rule="evenodd"
        d="M0.174487 3.35257C0.249256 3.15371 0.47101 3.05312 0.669794 3.1279L0.534402 3.48797C0.669794 3.1279 0.669694 3.12786 0.669794 3.1279L0.67071 3.12825L0.672079 3.12876L0.676148 3.13033L0.689525 3.13554C0.700725 3.13996 0.716456 3.14626 0.736364 3.1545C0.776179 3.17098 0.832779 3.19521 0.903479 3.22755C1.04478 3.2922 1.24293 3.38952 1.47623 3.52248C1.9417 3.78776 2.55336 4.19847 3.13273 4.78001C3.71778 5.36716 4.11236 6.00616 4.36042 6.49563C4.48483 6.74101 4.57346 6.95101 4.63148 7.10116C4.66052 7.17624 4.68196 7.23663 4.69643 7.27917C4.70367 7.30047 4.70918 7.31732 4.71303 7.32932L4.71757 7.3437L4.71893 7.34817L4.71939 7.34963L4.71963 7.35047C4.71966 7.35055 4.71969 7.35063 4.35146 7.46155L4.71963 7.35047C4.78084 7.55386 4.66566 7.76863 4.46229 7.82993C4.25912 7.89109 4.04486 7.77609 3.98341 7.57301L3.98303 7.57178L3.98053 7.56386C3.97807 7.55617 3.97405 7.54386 3.96838 7.52716C3.95704 7.49386 3.93915 7.4434 3.91413 7.37863C3.86403 7.24901 3.78566 7.06293 3.67446 6.84363C3.45132 6.40332 3.10034 5.8374 2.58799 5.32316C2.06996 4.80324 1.51863 4.43216 1.09548 4.19101C0.884464 4.0707 0.706894 3.98366 0.583548 3.92723C0.521925 3.89904 0.473971 3.87856 0.44231 3.86546C0.426487 3.85891 0.414748 3.85421 0.407418 3.85132L0.399779 3.84834L0.399018 3.84804C0.398964 3.84803 0.399071 3.84806 0.399018 3.84804M0.174487 3.35257C0.0997329 3.55138 0.200341 3.7732 0.399018 3.84804L0.174487 3.35257Z"
        fill="#3C3A80" />
</svg>